# xmcd
#
# Track frame offsets:
#	150
#	20322
#	36444
#	52820
#	68610
#	80943
#	97952
#	116786
#	135242
#	147147
#	163012
#	182431
#
# Disc length: 2780 seconds
#
# Revision: 2
# Processed by: cddbd v1.4PL0 Copyright (c) Steve Scherf et al.
# Submitted via: audiograbber 1.82.02
#
DISCID=970ada0c
DTITLE=William Brooks - Silent Wings
DYEAR=2000
DGENRE=Country
TTITLE0=Silent Wings
TTITLE1=Hideaway
TTITLE2=Land Of Lincoln
TTITLE3=I Have A Mind
TTITLE4=You Barely See Me
TTITLE5=Maybe Meagan
TTITLE6=Justified
TTITLE7=I Will Stop With You
TTITLE8=Thicker Than Thieves
TTITLE9=Whose Moon
TTITLE10=That Skin
TTITLE11=Between Here And There
EXTD=
EXTT0=
EXTT1=
EXTT2=
EXTT3=
EXTT4=
EXTT5=
EXTT6=
EXTT7=
EXTT8=
EXTT9=
EXTT10=
EXTT11=
PLAYORDER=
